# xmcd
#
# Track frame offsets: 
#        150
#        16692
#        35355
#        52390
#        70747
#        85475
#        108152
#        125250
#        139947
#        152307
#        168272
#        185197
#
# Disc length: 2610 seconds
#
# Revision: 1
# Processed by: cddbd v1.4PL0 Copyright (c) Steve Scherf et al.
# Submitted via: ExactAudioCopy v0.90b4
#
DISCID=9b0a300c
DTITLE=Ester Brohus - Poor pretty little me
DYEAR=2001
DGENRE=
TTITLE0=Sweet breeze
TTITLE1=Down
TTITLE2=Clowns in may
TTITLE3=Closer to you
TTITLE4=Feeling is believing
TTITLE5=She walks
TTITLE6=Stolen time
TTITLE7=I am what I am
TTITLE8=I still remember
TTITLE9=How did I
TTITLE10=Countin' waves
TTITLE11=Poor pretty little me
EXTD=
EXTT0=
EXTT1=
EXTT2=
EXTT3=
EXTT4=
EXTT5=
EXTT6=
EXTT7=
EXTT8=
EXTT9=
EXTT10=
EXTT11=
PLAYORDER=
